<svg width="16" height="16" viewBox="0 0 16 16" fill="none" xmlns="http://www.w3.org/2000/svg">
<g clip-path="url(#clip0_1_592)">
<path d="M15.5736 2.59741L13.3918 0.413762C12.8421 -0.136429 11.8858 -0.137486 11.3339 0.414818L1.55986 10.2853C1.51653 10.3291 1.48527 10.3827 1.46823 10.4417L0.0137128 15.537C-0.0225256 15.6638 0.0129969 15.8007 0.106405 15.8942C0.175644 15.9635 0.268336 16.0008 0.363518 16.0008C0.396892 16.0008 0.430642 15.9962 0.463301 15.9869L5.55417 14.5311C5.61311 14.5141 5.66674 14.4828 5.71041 14.4394L15.5736 4.65598C15.8485 4.3809 15.9998 4.01552 15.9998 3.62671C15.9998 3.23791 15.8485 2.87249 15.5736 2.59741ZM9.74934 3.05999L11.0879 4.39853L4.09942 11.387L3.59787 10.3836C3.53607 10.2604 3.41038 10.1826 3.27258 10.1826H2.69024L9.74934 3.05999ZM0.892981 15.1077L1.36664 13.4496L2.55102 14.634L0.892981 15.1077ZM5.09074 13.9084L3.35092 14.4055L1.59515 12.6497L2.09216 10.9099H3.04775L3.67451 12.1634C3.70966 12.2337 3.76683 12.2909 3.83716 12.3261L5.09071 12.9528V13.9084H5.09074ZM5.81803 13.3104V12.7281C5.81803 12.5903 5.74027 12.4646 5.61703 12.4028L4.61361 11.9012L11.6021 4.91275L12.9406 6.25129L5.81803 13.3104ZM15.0605 4.15031L13.4571 5.73938L10.2612 2.54348L11.8492 0.941179C12.1241 0.666306 12.6028 0.666306 12.8776 0.941179L15.0594 3.12299C15.1969 3.26041 15.2725 3.44293 15.2725 3.63718C15.2725 3.83143 15.1969 4.01395 15.0605 4.15031Z" fill="#ffffff"/>
</g>
<defs>
<clipPath id="clip0_1_592">
<rect width="16" height="16" fill="#ffffff"/>
</clipPath>
</defs>
</svg>
