<svg version="1.1" xmlns="http://www.w3.org/2000/svg" xmlns:xlink="http://www.w3.org/1999/xlink" width="32px" height="32px" viewBox="0,0,256,256"><g fill="#1976d2" fill-rule="nonzero" stroke="none" stroke-width="1" stroke-linecap="butt" stroke-linejoin="miter" stroke-miterlimit="10" stroke-dasharray="" stroke-dashoffset="0" font-family="none" font-weight="none" font-size="none" text-anchor="none" style="mix-blend-mode: normal"><g transform="scale(8,8)"><path d="M8,5c-1.64497,0 -3,1.35503 -3,3v16c0,1.64497 1.35503,3 3,3h16c1.64497,0 3,-1.35503 3,-3v-16c0,-1.64497 -1.35503,-3 -3,-3zM8,7h16c0.56503,0 1,0.43497 1,1v16c0,0.56503 -0.43497,1 -1,1h-16c-0.56503,0 -1,-0.43497 -1,-1v-16c0,-0.56503 0.43497,-1 1,-1zM15,11v4h-4v2h4v4h2v-4h4v-2h-4v-4z"></path></g></g></svg>