<svg width="16" height="16" viewBox="0 0 16 16" fill="none" xmlns="http://www.w3.org/2000/svg">
<g clip-path="url(#clip0_1_606)">
<path d="M14.4375 3.5H12.9375C12.0759 3.5 11.375 4.20094 11.375 5.0625V14.4375C11.375 15.2991 12.0759 16 12.9375 16H14.4375C15.2991 16 16 15.2991 16 14.4375V5.0625C16 4.20094 15.2991 3.5 14.4375 3.5ZM14.75 14.4375C14.75 14.6098 14.6098 14.75 14.4375 14.75H12.9375C12.7652 14.75 12.625 14.6098 12.625 14.4375V5.0625C12.625 4.89019 12.7652 4.75 12.9375 4.75H14.4375C14.6098 4.75 14.75 4.89019 14.75 5.0625V14.4375Z" fill="#ffffff"/>
<path d="M3.0625 8.25H1.5625C0.700938 8.25 0 8.95094 0 9.8125V14.4375C0 15.2991 0.700938 16 1.5625 16H3.0625C3.92406 16 4.625 15.2991 4.625 14.4375V9.8125C4.625 8.95094 3.92406 8.25 3.0625 8.25ZM3.375 14.4375C3.375 14.6098 3.23481 14.75 3.0625 14.75H1.5625C1.39019 14.75 1.25 14.6098 1.25 14.4375V9.8125C1.25 9.64019 1.39019 9.5 1.5625 9.5H3.0625C3.23481 9.5 3.375 9.64019 3.375 9.8125V14.4375Z" fill="#ffffff"/>
<path d="M8.75 0H7.25C6.38844 0 5.6875 0.700938 5.6875 1.5625V14.4375C5.6875 15.2991 6.38844 16 7.25 16H8.75C9.61156 16 10.3125 15.2991 10.3125 14.4375V1.5625C10.3125 0.700938 9.61156 0 8.75 0ZM9.0625 14.4375C9.0625 14.6098 8.92231 14.75 8.75 14.75H7.25C7.07769 14.75 6.9375 14.6098 6.9375 14.4375V1.5625C6.9375 1.39019 7.07769 1.25 7.25 1.25H8.75C8.92231 1.25 9.0625 1.39019 9.0625 1.5625V14.4375Z" fill="#ffffff"/>
</g>
<defs>
<clipPath id="clip0_1_606">
<rect width="16" height="16" fill="#ffffff"/>
</clipPath>
</defs>
</svg>
