<svg width="19" height="19" viewBox="0 0 19 19" fill="none" xmlns="http://www.w3.org/2000/svg">
<g clip-path="url(#clip0_1_406)">
<path d="M18.9205 11.5994L15.7194 6.26388L18.5922 5.46588C18.8885 5.38361 19.0618 5.07679 18.9796 4.78058C18.8973 4.48437 18.5904 4.31092 18.2943 4.39323L14.7232 5.38517C14.7229 5.38524 14.7227 5.38531 14.7224 5.38539L10.0567 6.6814V0.557495C10.0567 0.250081 9.80744 0.000854492 9.50002 0.000854492C9.19261 0.000854492 8.94338 0.250081 8.94338 0.557495V6.99063L3.9914 8.36613C3.99114 8.3662 3.99088 8.36627 3.99062 8.36631L0.407817 9.36151C0.111573 9.44378 -0.0618018 9.7506 0.0204326 10.0468C0.0888994 10.2932 0.312632 10.4546 0.55644 10.4546C0.605759 10.4546 0.655931 10.448 0.705731 10.4342L2.9392 9.81376L0.0795478 14.5804C0.0276689 14.6669 0.000207993 14.7659 0.000207993 14.8668C0.000207993 17.1462 1.85467 19.0006 4.13408 19.0006C6.41356 19.0006 8.26799 17.1462 8.26799 14.8668C8.26799 14.7659 8.24057 14.6669 8.18865 14.5804L4.98752 9.24484L13.671 6.83284L10.8114 11.5994C10.7595 11.6859 10.732 11.7849 10.732 11.8858C10.732 14.1652 12.5865 16.0196 14.8659 16.0196C15.9701 16.0196 17.0082 15.5896 17.789 14.8088C18.5699 14.028 18.9998 12.9899 18.9998 11.8857C18.9998 11.7849 18.9724 11.6859 18.9205 11.5994ZM4.13408 17.8873C2.65872 17.8873 1.42758 16.8238 1.16548 15.4234H7.10268C6.84062 16.8238 5.60948 17.8873 4.13408 17.8873ZM6.72832 14.3101H1.53991L4.13408 9.98613L6.72832 14.3101ZM14.8659 7.00518L17.4602 11.3291H12.2717L14.8659 7.00518ZM14.866 14.9064C13.3906 14.9064 12.1594 13.8429 11.8973 12.4424H17.8346C17.5725 13.8429 16.3414 14.9064 14.866 14.9064Z" fill="#ffffff"/>
</g>
<defs>
<clipPath id="clip0_1_406">
<rect width="19" height="19" fill="#ffffff"/>
</clipPath>
</defs>
</svg>
