<svg width="35" height="35" viewBox="0 0 35 35" fill="none" xmlns="http://www.w3.org/2000/svg">
<path d="M4.37498 0H22.961L32.8124 9.81315V32.8125C32.8124 34.0211 31.8325 35 30.6249 35H4.37498C3.16745 35 2.1875 34.0211 2.1875 32.8125V2.18748C2.1875 0.978928 3.16756 0 4.37498 0Z" fill="#E2574C"/>
<path d="M32.7808 9.84372H25.1562C23.9487 9.84372 22.9688 8.86377 22.9688 7.65624V0.0218506L32.7808 9.84372Z" fill="#B53629"/>
<path d="M24.607 16.5845C24.9734 16.5845 25.1528 16.2651 25.1528 15.9556C25.1528 15.6351 24.9657 15.3256 24.607 15.3256H22.5201C22.1121 15.3256 21.8847 15.6635 21.8847 16.0365V21.1651C21.8847 21.6223 22.145 21.876 22.4971 21.876C22.8472 21.876 23.1086 21.6223 23.1086 21.1651V19.7574H24.3708C24.7624 19.7574 24.9582 19.4369 24.9582 19.1187C24.9582 18.807 24.7624 18.4974 24.3708 18.4974H23.1086V16.5845H24.607ZM17.5534 15.3256H16.0265C15.6119 15.3256 15.3177 15.61 15.3177 16.0321V21.1695C15.3177 21.6933 15.741 21.8574 16.0439 21.8574H17.6463C19.5428 21.8574 20.7952 20.6095 20.7952 18.6833C20.7941 16.6468 19.6151 15.3256 17.5534 15.3256ZM17.6267 20.5909H16.6959V16.5922H17.5348C18.8047 16.5922 19.357 17.4442 19.357 18.62C19.357 19.7203 18.8145 20.5909 17.6267 20.5909ZM12.0333 15.3256H10.5206C10.0929 15.3256 9.85449 15.6077 9.85449 16.0365V21.1651C9.85449 21.6223 10.1279 21.876 10.4954 21.876C10.8628 21.876 11.1363 21.6223 11.1363 21.1651V19.6677H12.0845C13.2548 19.6677 14.2206 18.8386 14.2206 17.5053C14.2207 16.2006 13.2889 15.3256 12.0333 15.3256ZM12.0081 18.4647H11.1364V16.5298H12.0081C12.5463 16.5298 12.8886 16.9498 12.8886 17.4978C12.8875 18.0447 12.5463 18.4647 12.0081 18.4647Z" fill="white"/>
</svg>
