<svg width="35" height="35" viewBox="0 0 35 35" fill="none" xmlns="http://www.w3.org/2000/svg">
<path d="M4.37498 0H22.961L32.8124 9.81315V32.8125C32.8124 34.0211 31.8325 35 30.625 35H4.37498C3.16745 35 2.1875 34.0211 2.1875 32.8125V2.18748C2.1875 0.978928 3.16756 0 4.37498 0Z" fill="#E4E7E7"/>
<path d="M32.7808 9.84372H25.1562C23.9487 9.84372 22.9688 8.86377 22.9688 7.65624V0.0218506L32.7808 9.84372Z" fill="#C2C5C7"/>
<path d="M6.5625 14.2188V16.4063H28.4375V14.2188H6.5625ZM6.5625 20.7823H28.4375V18.5949H6.5625V20.7823ZM6.5625 25.1563H28.4375V22.9688H6.5625V25.1563ZM6.5625 29.5312H28.4375V27.3448H6.5625V29.5312ZM18.5937 9.84371H6.5625V12.0312H18.5938L18.5937 9.84371ZM18.5937 5.46875H6.5625V7.65623H18.5938L18.5937 5.46875Z" fill="#CCD0D2"/>
</svg>
