<svg width="11" height="11" viewBox="0 0 11 11" fill="none" xmlns="http://www.w3.org/2000/svg">
<g clip-path="url(#clip0_1_302)">
<path d="M1.40667 3.97821C1.23025 3.90764 1.01854 3.97821 0.947964 4.15464C0.877394 4.33107 0.806823 4.5075 0.736253 4.71921C0.700968 4.89563 0.806823 5.07206 0.98325 5.14263C1.01853 5.14263 1.05382 5.14263 1.08911 5.14263C1.23025 5.14263 1.37139 5.03678 1.40667 4.93092C1.44196 4.75449 1.51253 4.57807 1.5831 4.43692C1.65367 4.2605 1.5831 4.04879 1.40667 3.97821Z" fill="#ffffff"/>
<path d="M1.40666 7.08336C1.33609 6.80108 1.26552 6.5188 1.26552 6.23651C1.23024 6.06009 1.05381 5.91895 0.877383 5.91895C0.700956 5.95423 0.559814 6.09537 0.559814 6.30708C0.559814 6.65994 0.630385 7.01279 0.700956 7.33036C0.771527 7.4715 0.912668 7.57735 1.05381 7.57735C1.0891 7.57735 1.12438 7.57735 1.15967 7.50678C1.33609 7.4715 1.44195 7.25979 1.40666 7.08336Z" fill="#ffffff"/>
<path d="M2.924 9.4122C2.53586 9.12991 2.21829 8.77706 1.93601 8.35363C1.83015 8.17721 1.61844 8.14192 1.44201 8.24778C1.26558 8.35363 1.2303 8.56535 1.33616 8.74177C1.65372 9.20048 2.04186 9.62391 2.50057 9.97676C2.57114 10.012 2.64171 10.0473 2.71229 10.0473C2.81814 10.0473 2.924 10.0121 2.99457 9.90619C3.10042 9.76505 3.06514 9.51805 2.924 9.4122Z" fill="#ffffff"/>
<path d="M7.22875 10.3296C7.15818 10.1178 6.94647 10.012 6.77004 10.0826C5.95848 10.3296 5.07635 10.3296 4.26479 10.0826C4.05307 10.0473 3.87665 10.1531 3.80608 10.3296C3.77079 10.5413 3.87665 10.7177 4.05307 10.7883C4.51178 10.9294 5.00578 11 5.49977 11C5.99377 11 6.48776 10.9294 6.98176 10.7883C7.19347 10.7177 7.29932 10.5413 7.22875 10.3296Z" fill="#ffffff"/>
<path d="M10.0869 4.18992C9.59295 2.95493 8.64025 2.00223 7.44055 1.47295C6.62899 1.12009 5.74685 1.01424 4.86472 1.12009C4.65301 1.15538 4.51187 1.33181 4.54715 1.50823C4.58244 1.71994 4.75886 1.86109 4.93529 1.8258C5.71157 1.71994 6.45256 1.86109 7.15826 2.14337C8.18154 2.60208 8.9931 3.41364 9.41652 4.4722C9.83995 5.53076 9.83995 6.69517 9.38124 7.71845C9.09896 8.35358 8.67553 8.95343 8.11097 9.37686C7.93454 9.48271 7.93454 9.72971 8.0404 9.87085C8.11097 9.97671 8.21682 10.012 8.32268 10.012C8.39325 10.012 8.46382 10.012 8.56968 9.90614C9.20481 9.41214 9.73409 8.74172 10.0517 7.96544C10.5457 6.76574 10.5809 5.4249 10.0869 4.18992Z" fill="#ffffff"/>
<path d="M6.34666 0.13212C6.24081 -0.00902129 5.99381 -0.0443066 5.85267 0.0615494L4.54711 1.04954C4.37068 1.1554 4.37068 1.40239 4.47654 1.54353L5.49981 2.88438C5.57039 2.99023 5.67624 3.02552 5.7821 3.02552C5.85267 3.02552 5.92324 3.02552 5.95852 2.99023C6.13495 2.88438 6.13495 2.63738 6.0291 2.49624L5.21753 1.43768L6.27609 0.626115C6.45252 0.520259 6.45252 0.273261 6.34666 0.13212Z" fill="#ffffff"/>
</g>
<defs>
<clipPath id="clip0_1_302">
<rect width="11" height="11" fill="#ffffff"/>
</clipPath>
</defs>
</svg>
