<svg width="42" height="42" viewBox="0 0 42 42" fill="none" xmlns="http://www.w3.org/2000/svg">
<g clip-path="url(#clip0_1_332)">
<path d="M24.171 1.06762C23.9634 0.89896 23.6901 0.834484 23.4291 0.892644L0.679094 6.14264C0.278699 6.23468 -0.00381649 6.59283 3.89817e-05 7.00364V36.7537C0.000203044 37.1854 0.315285 37.5526 0.742012 37.6182L23.492 41.1182C23.9697 41.1916 24.4164 40.864 24.4898 40.3864C24.4965 40.3425 24.5 40.2982 24.5 40.2538V1.75364C24.5008 1.4868 24.3796 1.23422 24.171 1.06762Z" fill="#1565C0"/>
<path d="M41.1251 37.6286H23.625C23.1418 37.6286 22.75 37.2368 22.75 36.7536C22.75 36.2703 23.1418 35.8786 23.625 35.8786H40.2501V6.12863H23.625C23.1418 6.12863 22.75 5.73685 22.75 5.25361C22.75 4.77036 23.1418 4.37866 23.625 4.37866H41.125C41.6082 4.37866 42 4.77044 42 5.25369V36.7537C42 37.2369 41.6083 37.6286 41.1251 37.6286Z" fill="#1565C0"/>
<path d="M14.8749 28.8786C14.485 28.8782 14.1425 28.6198 14.0349 28.2451L11.3749 18.9385L8.71486 28.2451C8.52274 28.7094 7.99052 28.9302 7.52606 28.7381C7.30277 28.6457 7.12542 28.4683 7.03305 28.2451L3.53311 15.9951C3.3866 15.5346 3.64123 15.0425 4.10175 14.896C4.56227 14.7495 5.0543 15.0041 5.2008 15.4647C5.20597 15.4809 5.21065 15.4973 5.21491 15.5138L7.87486 24.8185L10.5349 15.5121C10.727 15.0477 11.2592 14.827 11.7237 15.0191C11.947 15.1114 12.1243 15.2888 12.2167 15.5121L14.8749 24.8186L17.5349 15.5139C17.6609 15.0534 18.1363 14.7821 18.5968 14.908C18.6034 14.9098 18.6099 14.9117 18.6164 14.9136C19.0807 15.0466 19.3494 15.5307 19.2167 15.9951L15.7166 28.2451C15.6088 28.6204 15.2654 28.8789 14.8749 28.8786Z" fill="#FAFAFA"/>
<path d="M37.6251 11.3786H23.625C23.1418 11.3786 22.75 10.9868 22.75 10.5036C22.75 10.0203 23.1418 9.62854 23.625 9.62854H37.6251C38.1083 9.62854 38.5001 10.0203 38.5001 10.5036C38.5001 10.9869 38.1083 11.3786 37.6251 11.3786Z" fill="#1565C0"/>
<path d="M37.6251 16.6286H23.625C23.1418 16.6286 22.75 16.2368 22.75 15.7536C22.75 15.2703 23.1418 14.8785 23.625 14.8785H37.6251C38.1083 14.8785 38.5001 15.2703 38.5001 15.7536C38.5001 16.2368 38.1083 16.6286 37.6251 16.6286Z" fill="#1565C0"/>
<path d="M37.6251 21.8786H23.625C23.1418 21.8786 22.75 21.4868 22.75 21.0036C22.75 20.5203 23.1418 20.1285 23.625 20.1285H37.6251C38.1083 20.1285 38.5001 20.5203 38.5001 21.0036C38.5001 21.4869 38.1083 21.8786 37.6251 21.8786Z" fill="#1565C0"/>
<path d="M37.6251 27.1286H23.625C23.1418 27.1286 22.75 26.7368 22.75 26.2536C22.75 25.7703 23.1418 25.3785 23.625 25.3785H37.6251C38.1083 25.3785 38.5001 25.7703 38.5001 26.2536C38.5001 26.7369 38.1083 27.1286 37.6251 27.1286Z" fill="#1565C0"/>
<path d="M37.6251 32.3786H23.625C23.1418 32.3786 22.75 31.9868 22.75 31.5036C22.75 31.0203 23.1418 30.6285 23.625 30.6285H37.6251C38.1083 30.6285 38.5001 31.0203 38.5001 31.5036C38.5001 31.9869 38.1083 32.3786 37.6251 32.3786Z" fill="#1565C0"/>
</g>
<defs>
<clipPath id="clip0_1_332">
<rect width="42" height="42" fill="white"/>
</clipPath>
</defs>
</svg>
